<svg xmlns="http://www.w3.org/2000/svg" viewBox="0 0 100 108" width="100" height="108">
  <rect x="0" y="18" width="100" height="90" rx="8" fill="#7b2d42"/>
  <rect x="0" y="18" width="100" height="8" rx="4" fill="#5a1f30"/>
  <rect x="20" y="12" width="8" height="16" rx="4" fill="#f5ede0"/>
  <rect x="72" y="12" width="8" height="16" rx="4" fill="#f5ede0"/>
  <line x1="0" y1="40" x2="100" y2="40" stroke="#5a1f30" stroke-width="1.5"/>
  <rect x="14" y="52" width="30" height="4.5" rx="2" fill="#f5ede0" opacity="0.9"/>
  <rect x="14" y="64" width="44" height="4.5" rx="2" fill="#f5ede0" opacity="0.7"/>
  <rect x="14" y="76" width="36" height="4.5" rx="2" fill="#f5ede0" opacity="0.5"/>
  <rect x="14" y="88" width="22" height="4.5" rx="2" fill="#f5ede0" opacity="0.3"/>
  <polyline points="6,53 9,57 17,49" fill="none" stroke="#f5ede0" stroke-width="2" stroke-linecap="round" stroke-linejoin="round"/>
  <polyline points="6,65 9,69 17,61" fill="none" stroke="#f5ede0" stroke-width="2" stroke-linecap="round" stroke-linejoin="round"/>
  <polyline points="6,77 9,81 17,73" fill="none" stroke="#f5ede0" stroke-width="2" stroke-linecap="round" stroke-linejoin="round"/>
  <polyline points="6,89 9,93 17,85" fill="none" stroke="#f5ede0" stroke-width="2" stroke-linecap="round" stroke-linejoin="round" opacity="0.4"/>
</svg>
